HIERARCHY
ROOT root
{
	OFFSET 0.000000 0.000000 0.000000
	CHANNELS 6 Xposition Yposition Zposition Zrotation Yrotation Xrotation
	JOINT lhip
	{
		OFFSET 0.058581 -0.082280 -0.017664
		CHANNELS 3 Zrotation Yrotation Xrotation
		JOINT lknee
		{
			OFFSET 0.043451 -0.386469 0.008037
			CHANNELS 3 Zrotation Yrotation Xrotation
			JOINT lankle
			{
				OFFSET -0.014790 -0.426874 -0.037428
				CHANNELS 3 Zrotation Yrotation Xrotation
				JOINT ltoe
				{
					OFFSET 0.041054 -0.060286 0.122042
					CHANNELS 3 Zrotation Yrotation Xrotation
					End Site
					{
						OFFSET 0.000000 0.000000 0.000000
					}
				}
			}
		}
	}
	JOINT rhip
	{
		OFFSET -0.060310 -0.090513 -0.013543
		CHANNELS 3 Zrotation Yrotation Xrotation
		JOINT rknee
		{
			OFFSET -0.043257 -0.383688 -0.004843
			CHANNELS 3 Zrotation Yrotation Xrotation
			JOINT rankle
			{
				OFFSET 0.019056 -0.420046 -0.034562
				CHANNELS 3 Zrotation Yrotation Xrotation
				JOINT rtoe
				{
					OFFSET -0.034840 -0.062106 0.130323
					CHANNELS 3 Zrotation Yrotation Xrotation
					End Site
					{
						OFFSET 0.000000 0.000000 0.000000
					}
				}
			}
		}
	}
	JOINT lowerback
	{
		OFFSET 0.004439 0.124404 -0.038385
		CHANNELS 3 Zrotation Yrotation Xrotation
		JOINT upperback
		{
			OFFSET 0.004488 0.137956 0.026820
			CHANNELS 3 Zrotation Yrotation Xrotation
			JOINT chest
			{
				OFFSET -0.002265 0.056032 0.002855
				CHANNELS 3 Zrotation Yrotation Xrotation
				JOINT lowerneck
				{
					OFFSET -0.013390 0.211636 -0.033468
					CHANNELS 3 Zrotation Yrotation Xrotation
					JOINT upperneck
					{
						OFFSET 0.010113 0.088937 0.050410
						CHANNELS 3 Zrotation Yrotation Xrotation
						End Site
						{
							OFFSET 0.000000 0.000000 0.000000
						}
					}
				}
				JOINT lclavicle
				{
					OFFSET 0.071702 0.114000 -0.018898
					CHANNELS 3 Zrotation Yrotation Xrotation
					JOINT lshoulder
					{
						OFFSET 0.122921 0.045205 -0.019046
						CHANNELS 3 Zrotation Yrotation Xrotation
						JOINT lelbow
						{
							OFFSET 0.255332 -0.015649 -0.022946
							CHANNELS 3 Zrotation Yrotation Xrotation
							JOINT lwrist
							{
								OFFSET 0.265709 0.012698 -0.007375
								CHANNELS 3 Zrotation Yrotation Xrotation
								End Site
								{
									OFFSET 0.000000 0.000000 0.000000
								}
							}
						}
					}
				}
				JOINT rclavicle
				{
					OFFSET -0.082954 0.112472 -0.023707
					CHANNELS 3 Zrotation Yrotation Xrotation
					JOINT rshoulder
					{
						OFFSET -0.113228 0.046853 -0.008472
						CHANNELS 3 Zrotation Yrotation Xrotation
						JOINT relbow
						{
							OFFSET -0.260127 -0.014369 -0.031269
							CHANNELS 3 Zrotation Yrotation Xrotation
							JOINT rwrist
							{
								OFFSET -0.269108 0.006794 -0.006027
								CHANNELS 3 Zrotation Yrotation Xrotation
								End Site
								{
									OFFSET 0.000000 0.000000 0.000000
								}
							}
						}
					}
				}
			}
		}
	}
}
MOTION
Frames: 8
Frame Time: 0.033333
0.717468 0.322951 0.973739 -75.093289 -7.222306 95.304261 7.346806 -2.127664 12.741843 -12.045288 -28.096958 33.794025 1.946077 11.438551 -37.623381 0.000000 -0.000000 0.000000 -15.367273 -7.645753 -27.071444 1.650306 -0.181949 12.186428 9.990372 -10.048073 4.007139 0.000000 -0.000000 0.000000 -5.790288 -6.937738 5.075394 -0.547080 -6.776127 -0.303205 -2.410946 -5.190120 9.220319 1.153352 0.382296 12.916924 2.185171 -1.893332 14.249553 -16.377595 13.353244 6.908904 -44.493098 -9.299359 1.410554 -1.041297 -42.889041 8.704331 2.463244 -4.815362 -15.526087 18.860880 -15.344387 1.788765 62.540806 -8.188757 10.080008 -12.897223 30.290806 -1.345597 7.189475 -0.138432 -2.445600 
0.706579 0.329782 0.977770 -74.493915 -8.455672 97.051134 7.623273 -1.734311 11.674683 -11.833202 -27.954900 31.900326 1.043946 9.730139 -34.916490 0.000000 -0.000000 0.000000 -16.094191 -7.936619 -27.614345 1.798471 -0.889499 11.552035 9.095373 -10.002006 3.404725 0.000000 -0.000000 0.000000 -5.099915 -8.143599 6.012682 -0.192724 -8.554966 0.878507 -2.325521 -5.949538 7.936489 0.770200 1.322061 12.304977 2.122502 -1.211006 12.930540 -16.292969 10.926471 7.293145 -42.816171 -8.894838 1.606609 -2.452317 -43.402521 13.380724 0.561679 -6.384057 -13.066629 19.047977 -14.639011 1.569290 62.807189 -8.206782 9.951709 -13.363322 34.495098 -0.985005 9.641402 1.079381 -5.834792 
0.694950 0.336537 0.979899 -74.588447 -9.161800 97.832178 8.083653 -0.815119 12.313026 -11.038754 -28.221935 29.651922 0.325321 8.291834 -32.517384 0.000000 -0.000000 0.000000 -16.414144 -8.160101 -28.365476 2.089554 -1.712138 12.889594 8.845087 -9.053314 2.346070 0.000000 -0.000000 0.000000 -4.146445 -8.347933 7.755653 0.238874 -8.891493 1.360911 -2.356952 -6.438807 7.042746 0.960488 1.988171 11.493615 2.294022 -2.179433 12.267194 -15.141345 8.005460 6.949423 -42.008737 -10.056621 2.537996 -3.125668 -43.828346 16.478395 0.805123 -7.517054 -10.592503 18.908899 -13.824261 1.095431 63.660919 -9.058137 9.522941 -13.187958 36.109219 -0.668320 9.564343 1.477511 -7.062522 
0.684318 0.344028 0.979738 -75.240512 -9.400930 99.020228 8.055891 -0.816685 12.457680 -10.337305 -28.470563 28.329793 -0.109432 8.300619 -30.633372 0.000000 -0.000000 0.000000 -16.104524 -7.572797 -30.264365 2.259402 -1.611310 14.990756 8.282497 -9.047917 0.802576 0.000000 -0.000000 0.000000 -3.369730 -8.599270 8.962094 0.778605 -8.645895 1.372958 -2.066043 -6.552754 6.966363 0.652355 2.774674 10.166014 2.082948 -2.120897 11.409610 -14.466738 5.804381 6.164019 -41.303216 -11.957219 3.048627 -2.614426 -45.254121 15.834046 2.203579 -7.583737 -10.068632 18.588888 -12.569108 0.934364 64.166004 -9.355884 10.152269 -13.165929 36.091958 -0.111542 9.772909 0.959598 -5.992388 
0.672993 0.351822 0.978616 -75.419795 -9.513126 99.709997 8.605420 -0.953314 13.093442 -9.843459 -29.181982 26.808939 -1.162564 8.013452 -29.146742 0.000000 -0.000000 0.000000 -15.560936 -7.244115 -31.685840 2.242619 -1.904766 17.605890 7.467417 -8.567481 -1.483235 0.000000 -0.000000 0.000000 -2.943777 -9.076028 10.009993 1.294839 -8.710358 2.463199 -1.470010 -6.582348 6.319261 0.473645 3.795668 9.142173 1.917257 -2.196546 10.614903 -14.236768 3.882258 4.778017 -40.759226 -13.954933 3.217175 -1.073833 -46.544482 12.569074 2.581925 -7.015320 -11.403040 18.790990 -10.871129 0.864754 63.708254 -9.453782 10.819217 -12.756042 35.636868 0.417267 9.275712 0.550806 -4.605867 
0.661210 0.359406 0.977266 -75.457050 -9.766391 100.429251 9.239322 -0.769377 13.456483 -9.386205 -29.807220 25.601339 -1.755367 7.129635 -26.769546 0.000000 -0.000000 0.000000 -15.396190 -7.018008 -32.970581 2.468624 -2.337304 20.088770 6.756227 -8.113388 -3.387504 0.000000 -0.000000 0.000000 -2.591614 -9.488778 10.679247 1.664250 -8.807422 3.146351 -1.127159 -6.702568 5.689895 0.195962 4.071081 8.999809 2.177876 -2.277768 9.988318 -14.051882 2.089275 4.231236 -40.266418 -16.094931 2.969484 1.490771 -47.728614 8.845954 2.930002 -6.595720 -12.254654 18.753306 -9.727843 1.043367 63.366675 -9.441502 10.850464 -11.850858 35.312946 1.166140 10.173361 0.452232 -4.562393 
0.649793 0.367123 0.977326 -75.275941 -10.169217 101.199550 9.364777 -0.916649 12.772204 -9.225429 -29.724259 26.036952 -2.203040 6.627928 -24.050763 0.000000 -0.000000 0.000000 -15.119343 -7.202304 -33.628983 2.426270 -2.754769 21.191412 6.040148 -7.511895 -4.794514 0.000000 -0.000000 0.000000 -2.277400 -9.935524 11.501285 1.855259 -9.133690 2.882887 -0.917846 -6.895759 5.463107 -0.245591 4.484432 8.867707 2.233635 -1.788651 9.466946 -13.722532 0.803119 3.738016 -40.693080 -18.109556 3.019330 4.780483 -48.516650 5.941402 3.664679 -6.677890 -13.104068 18.807691 -9.269804 1.026870 63.326211 -9.240821 10.647542 -11.675923 35.088914 1.386785 10.690828 0.710165 -5.401929 
0.636974 0.375942 0.978823 -76.018097 -9.730292 101.293919 10.561495 -0.319725 13.180311 -9.304176 -28.511710 26.222219 -3.322309 5.119601 -21.195320 0.000000 -0.000000 0.000000 -13.896847 -6.118928 -33.431587 2.103081 -3.017318 21.967942 5.668735 -7.052608 -6.325340 0.000000 -0.000000 0.000000 -1.947152 -10.276844 12.509111 2.297781 -8.497923 3.804464 -0.994445 -7.030934 4.508771 0.739010 5.328760 9.879656 0.643135 -1.974439 7.529061 -13.992833 1.069260 3.871242 -40.994005 -21.393754 4.677075 8.370379 -48.917377 3.085603 5.427463 -5.963596 -16.548161 20.026196 -10.144480 1.039758 61.916769 -8.174579 12.076315 -12.031821 35.185886 2.299434 10.158124 1.479029 -8.929965 
